<svg fill="currentColor" viewBox="0 0 24 24" xmlns="http://www.w3.org/2000/svg"><path d="m12 14.3094011 2-1.1547006v-2.309401l-2-1.15470058-2 1.15470058v2.309401zm1.5.8660254 5.4543021 3.1490428c1.5194504-1.66979 2.4456979-3.8889613 2.4456979-6.3244693 0-.4520306-.0319068-.8966089-.0935912-1.3316058zm7.4564843-6.03705402c-.8534948-2.67357332-2.8709343-4.82724067-5.4564843-5.86516772v9.01547034zm-12.4564843 2.57295242-5.45648426 3.1503026c.85349471 2.6735733 2.87093424 4.8272407 5.45648426 5.8651677zm-5.80640883 1.6202809 7.80640883-4.50703228-5.45430211-3.14904279c-1.51945038 1.66978997-2.44569789 3.88896127-2.44569789 6.32446927 0 .4520306.03190682.8966089.09359117 1.3316058zm7.30640883 1.5551455v6.3000354c.6445182.1396578 1.3136692.2132133 2 .2132133 2.1911737 0 4.2072399-.7497242 5.8056693-2.0066434zm-3.80566934-10.28010794 7.80566934 4.50660529v-6.30003532c-.6445182-.13965787-1.3136692-.21321333-2-.21321333-2.19117368 0-4.20723988.74972421-5.80566934 2.00664336zm5.80566934 18.39335664c-6.07513225 0-11-4.9248678-11-11 0-6.07513225 4.92486775-11 11-11 6.0751322 0 11 4.92486775 11 11 0 6.0751322-4.9248678 11-11 11z"/></svg>
