<svg fill="currentColor" viewBox="0 0 24 24" xmlns="http://www.w3.org/2000/svg"><path d="m3 4.5v-.25c0-.41421356.34413815-.75.75702667-.75h1.48594666c.41809428 0 .75702667.33289862.75702667.75v.25h.75l.98378509-1.63964182c.28183991-.46973318.96211337-.86035818 1.512157-.86035818h5.50811581c.5492434 0 1.2270594.38519548 1.512157.86035818l.9837851 1.63964182h3.7550662c1.0964963 0 1.9949338.89877606 1.9949338 2.00747252v13.48505498c0 1.1155858-.8914705 2.0074725-1.991155 2.0074725h-18.01769c-1.10148105 0-1.991155-.8987761-1.991155-2.0074725v-13.48505498c0-1.11558587.89316227-2.00747252 1.99493377-2.00747252zm13.4007144 1.5-1.4207389-2.36789819c-.0144354-.0240591-.2043996-.13210181-.2259176-.13210181h-5.50811581c-.01908249 0-.21306871.11068697-.22591761.13210181l-1.42073891 2.36789819h-4.6043518c-.27440476 0-.49493377.22138903-.49493377.50747252v13.48505498c0 .2838307.22168567.5074725.491155.5074725h18.01769c.2716733 0 .491155-.2207558.491155-.5074725v-13.48505498c0-.27992678-.2265375-.50747252-.4949338-.50747252zm-4.4007144 1c3.314 0 6 2.68466667 6 5.9986667 0 3.314-2.686 6.0013333-6 6.0013333-3.31466667 0-6-2.6873333-6-6.0013333 0-3.31400003 2.68533333-5.9986667 6-5.9986667zm0 1.575c-2.44492353 0-4.425 1.9796205-4.425 4.4236667 0 2.4447714 1.98080165 4.4263333 4.425 4.4263333 2.443789 0 4.425-1.9818193 4.425-4.4263333 0-2.4437889-1.9804858-4.4236667-4.425-4.4236667zm7-.575c.5523333 0 1 .44744444 1 .99977778 0 .55233333-.4476667 1.00022222-1 1.00022222-.5524444 0-1-.44788889-1-1.00022222 0-.55233334.4475556-.99977778 1-.99977778z" /></svg>
