<svg fill="currentColor" viewBox="0 0 24 24" xmlns="http://www.w3.org/2000/svg"><path d="m11 13.8546207c-.7329576-.2966936-1.25-1.0152763-1.25-1.8546207s.5170424-1.5579271 1.25-1.8546207v-5.29474997c0-.41457462.3328986-.75065374.75-.75065374.4142136 0 .75.33347314.75.75065374v5.29474997c.7329576.2966936 1.25 1.0152763 1.25 1.8546207s-.5170424 1.5579271-1.25 1.8546207v1.4947011c0 .4145747-.3328986.7506538-.75.7506538-.4142136 0-.75-.3334732-.75-.7506538zm-.9841523-12.67614342c-.0104129-.05785067-.0158477-.11748887-.0158477-.17847728 0-.55228475.4433532-1 1.0093689-1h1.9812622c.5574591 0 1.0093689.44386482 1.0093689 1 0 .0609241-.0053951.12057571-.0157549.17849418 5.1280302.93419577 9.0157549 5.42383742 9.0157549 10.82150582 0 6.0751322-4.9248678 11-11 11-6.07513225 0-11-4.9248678-11-11 0-5.39770095 3.88777157-9.8873642 9.0158477-10.82152272zm1.9841523 20.22152272c5.1914766 0 9.4-4.2085234 9.4-9.4 0-5.19147665-4.2085234-9.4-9.4-9.4-5.19147665 0-9.4 4.20852335-9.4 9.4 0 5.1914766 4.20852335 9.4 9.4 9.4zm7.2679959-19.00057224c-.3137225-.31372242-.3169569-.81913255-.0023593-1.13373012.3124194-.31241944.8199523-.31141855 1.1337301.00235925l2.3994446 2.39944454c.3137224.31372241.3169568.81913255.0023592 1.13373012-.3124194.31241943-.8199523.31141855-1.1337301-.00235926z"/></svg>
