<svg fill="currentColor" viewBox="0 0 24 24" xmlns="http://www.w3.org/2000/svg"><path d="m18.1552004 20.2462868c1.3665194-2.5054241 2.0947996-5.3217056 2.0947996-8.2462868 0-2.92465955-.7283646-5.7408172-2.0944209-8.24561262l-5.6410336 3.06524326c.8886746 1.04150523 1.4854545 2.97155188 1.4854545 5.18036936 0 2.2092428-.5970097 4.1396073-1.4859678 5.1809708l5.6411707 3.0653174zm1.3183694-17.20807352c1.4845697 2.72289858 2.2764302 5.78496157 2.2764302 8.96178672 0 3.1766913-.7917517 6.2388889-2.2768088 8.9624609l.8867637.4818524c.3870492.223463.5216074.7150116.2970717 1.1039187-.222981.3862145-.7185971.5175219-1.1045574.2946876l-9.0010029-4.9095295c-.234792-.0703986-.4606827-.1952149-.67436002-.3678246l-7.87710628-4.2965085c-.42060636-.265719-.69995117-.7347658-.69995117-1.269057s.27934481-1.003338.69995117-1.269057l7.87559562-4.2952898c.21465798-.17367068.44164548-.29909722.67761178-.36956435l8.9992618-4.90812873c.3870492-.22346297.8800218-.09421943 1.1045574.29468765.2229811.38621447.0888886.88108437-.2970717 1.10391865zm-11.09037632 11.89812922c-.24401656-.8679847-.38319348-1.8696571-.38319348-2.9363425 0-1.0662596.13906583-2.06755806.38290131-2.93530301l-5.02033533 2.72796621.00004097.415577zm2.42284442 1.3165329.2332151.1267252c.0214462-.0139044.0524546-.0365594.0951351-.072664.1772869-.1499721.3734227-.4149856.5558487-.7798377.4416393-.8832785.7097632-2.1511107.7097632-3.5270989s-.2681239-2.64382045-.7097632-3.52709893c-.182426-.36485207-.3785618-.62986562-.5558487-.77983764-.0421934-.0356926-.0729796-.05824075-.0943971-.07218454l-.2360167.12824752c-.1604183.15595392-.3326887.40072974-.4942111.72377466-.44163928.88327848-.7097632 2.15111073-.7097632 3.52709893s.26812392 2.6438204.7097632 3.5270989c.1622152.3244305.3352708.5699191.4962747.7257765z"/></svg>
