<svg fill="currentColor" viewBox="0 0 64 64" xmlns="http://www.w3.org/2000/svg"><g><path d="M14,47H10a1,1,0,0,1-1-1V18a1,1,0,0,1,1-1h4a1,1,0,0,1,1,1V46A1,1,0,0,1,14,47Zm-3-2h2V19H11Z"/><path d="M30,47H22a5.006,5.006,0,0,1-5-5V38a1,1,0,0,1,1-1h4a1,1,0,0,1,1,1v3h6V35H22a5.006,5.006,0,0,1-5-5V22a5.006,5.006,0,0,1,5-5h8a5.006,5.006,0,0,1,5,5v4a1,1,0,0,1-1,1H30a1,1,0,0,1-1-1V23H23v6h7a5.006,5.006,0,0,1,5,5v8A5.006,5.006,0,0,1,30,47ZM19,39v3a3,3,0,0,0,3,3h8a3,3,0,0,0,3-3V34a3,3,0,0,0-3-3H23a2,2,0,0,1-2-2V23a2,2,0,0,1,2-2h6a2,2,0,0,1,2,2v2h2V22a3,3,0,0,0-3-3H22a3,3,0,0,0-3,3v8a3,3,0,0,0,3,3h7a2,2,0,0,1,2,2v6a2,2,0,0,1-2,2H23a2,2,0,0,1-2-2V39Z"/><path d="M48,47H44a7.008,7.008,0,0,1-7-7V24a7.008,7.008,0,0,1,7-7h4a7.008,7.008,0,0,1,7,7V40A7.008,7.008,0,0,1,48,47ZM44,19a5.006,5.006,0,0,0-5,5V40a5.006,5.006,0,0,0,5,5h4a5.006,5.006,0,0,0,5-5V24a5.006,5.006,0,0,0-5-5Z"/><path d="M48,43H44a3,3,0,0,1-3-3V24a3,3,0,0,1,3-3h4a3,3,0,0,1,3,3V40A3,3,0,0,1,48,43ZM44,23a1,1,0,0,0-1,1V40a1,1,0,0,0,1,1h4a1,1,0,0,0,1-1V24a1,1,0,0,0-1-1Z"/><path d="M57,56H7a5.006,5.006,0,0,1-5-5V13A5.006,5.006,0,0,1,7,8H57a5.006,5.006,0,0,1,5,5V51A5.006,5.006,0,0,1,57,56ZM7,10a3,3,0,0,0-3,3V51a3,3,0,0,0,3,3H57a3,3,0,0,0,3-3V13a3,3,0,0,0-3-3Z"/></g></svg>
